<svg id="Page-1" xmlns="http://www.w3.org/2000/svg" width="39" height="39" viewBox="0 0 39 39">
  <g id="Icon-Set">
    <path id="arrow-right-circle" d="M327.5,1123.562a17.062,17.062,0,1,1,17.062-17.062,17.064,17.064,0,0,1-17.062,17.063Zm0-36.562a19.5,19.5,0,1,0,19.5,19.5,19.5,19.5,0,0,0-19.5-19.5Zm7.965,18.427-6.893-6.9a1.221,1.221,0,0,0-1.723,1.731l5.022,5.021h-12.9a1.219,1.219,0,1,0,0,2.437h12.9l-5.022,5.021a1.221,1.221,0,0,0,1.723,1.731l6.893-6.9a1.973,1.973,0,0,0,0-2.145Z" transform="translate(-308 -1087)" fill="#c37000" fill-rule="evenodd"/>
  </g>
</svg>
